<svg width="327" height="38" viewBox="0 0 327 38" fill="none" xmlns="http://www.w3.org/2000/svg">
<rect x="0.5" y="0.5" width="92" height="37" rx="6.5" fill="white"/>
<rect x="0.5" y="0.5" width="92" height="37" rx="6.5" stroke="#7565F0"/>
<path d="M30.3281 23.3906V24.6094H17.5156V23.3906H23.1719V20.3438H24.6406V23.3906H30.3281ZM29.1406 14.4531V15.6562H24.6562C24.7188 17.6172 26.7969 19.2422 29.6719 19.6719L29.1094 20.8281C26.7734 20.4609 24.8203 19.3516 23.9062 17.7188C22.9922 19.3516 21.0469 20.4609 18.7031 20.8281L18.1406 19.6719C21.0156 19.2422 23.0781 17.6172 23.1562 15.6562H18.6719V14.4531H23.1719V12.5781H24.6406V14.4531H29.1406ZM42.3438 12.3125V16.5H44.375V17.75H42.3438V22.6094H40.8594V12.3125H42.3438ZM42.9375 24.8281V26.0312H33.4688V21.5312H34.9531V24.8281H42.9375ZM35.2812 13.2812C37.3906 13.2812 39 14.7188 39.0156 16.7656C39 18.7969 37.3906 20.25 35.2812 20.25C33.1719 20.25 31.5469 18.7969 31.5625 16.7656C31.5469 14.7188 33.1719 13.2812 35.2812 13.2812ZM35.2812 14.5781C34 14.5781 33 15.4688 33.0156 16.7656C33 18.0625 34 18.9531 35.2812 18.9531C36.5781 18.9531 37.5625 18.0625 37.5625 16.7656C37.5625 15.4688 36.5781 14.5781 35.2812 14.5781ZM55.3906 21.125C58.4219 21.125 60.3281 22.0781 60.3438 23.7188C60.3281 25.3438 58.4219 26.3125 55.3906 26.2969C52.3906 26.3125 50.4688 25.3438 50.4688 23.7188C50.4688 22.0781 52.3906 21.125 55.3906 21.125ZM55.3906 22.25C53.2656 22.25 51.9375 22.7969 51.9531 23.7188C51.9375 24.625 53.2656 25.1562 55.3906 25.1562C57.5312 25.1562 58.8594 24.625 58.875 23.7188C58.8594 22.7969 57.5312 22.25 55.3906 22.25ZM60.2344 13.0156V14.1875C60.2344 15.3125 60.2344 16.4688 59.8438 17.9062L58.3906 17.75C58.7656 16.3203 58.7656 15.2891 58.7656 14.2031H50.5781V13.0156H60.2344ZM61.8281 18.7656V19.9688H49.0938V18.7656H54.2031V16.1406H55.6562V18.7656H61.8281ZM75.7031 20.2344V21.4531H72.4531V26.3281H70.9531V21.4531H67.6094V26.3281H66.0781V21.4531H62.8906V20.2344H75.7031ZM69.2656 12.8594C72.2188 12.8594 74.25 14.0625 74.25 15.9531C74.25 17.8125 72.2188 19 69.2656 18.9844C66.2969 19 64.2812 17.8125 64.2812 15.9531C64.2812 14.0625 66.2969 12.8594 69.2656 12.8594ZM69.2656 14.0469C67.1875 14.0625 65.7969 14.7812 65.8125 15.9531C65.7969 17.0938 67.1875 17.8125 69.2656 17.8125C71.3438 17.8125 72.7344 17.0938 72.7344 15.9531C72.7344 14.7812 71.3438 14.0625 69.2656 14.0469Z" fill="#7565F0"/>
<rect x="117.5" y="0.5" width="92" height="37" rx="6.5" fill="white"/>
<rect x="117.5" y="0.5" width="92" height="37" rx="6.5" stroke="#7565F0"/>
<path d="M146.109 12.3281V26.3594H144.625V12.3281H146.109ZM138.625 13.375C140.703 13.375 142.234 15.2812 142.234 18.2812C142.234 21.2969 140.703 23.2031 138.625 23.2031C136.516 23.2031 135 21.2969 135 18.2812C135 15.2812 136.516 13.375 138.625 13.375ZM138.625 14.7031C137.328 14.7031 136.438 16.0781 136.438 18.2812C136.438 20.5 137.328 21.875 138.625 21.875C139.906 21.875 140.797 20.5 140.797 18.2812C140.797 16.0781 139.906 14.7031 138.625 14.7031ZM155.266 14.6406V15.8438H148.312V14.6406H151.062V12.7344H152.531V14.6406H155.266ZM151.797 16.6875C153.578 16.6875 154.828 18.0156 154.844 19.9062C154.828 21.8125 153.578 23.1562 151.797 23.1562C150.047 23.1562 148.75 21.8125 148.766 19.9062C148.75 18.0156 150.047 16.6875 151.797 16.6875ZM151.797 17.9219C150.781 17.9219 150.078 18.75 150.078 19.9062C150.078 21.0938 150.781 21.8906 151.797 21.8906C152.797 21.8906 153.531 21.0938 153.531 19.9062C153.531 18.75 152.797 17.9219 151.797 17.9219ZM160.328 12.3281V26.3281H158.922V19.375H157.312V25.6719H155.906V12.6406H157.312V18.1562H158.922V12.3281H160.328ZM177.75 12.3281V20.6562H176.266V17.1094H173.656V15.8906H176.266V12.3281H177.75ZM173.062 21.0469C176 21.0469 177.797 22.0156 177.797 23.6875C177.797 25.3594 176 26.3125 173.062 26.3281C170.125 26.3125 168.312 25.3594 168.328 23.6875C168.312 22.0156 170.125 21.0469 173.062 21.0469ZM173.062 22.2031C171.016 22.2031 169.797 22.7344 169.797 23.6875C169.797 24.625 171.016 25.1719 173.062 25.1562C175.109 25.1719 176.328 24.625 176.328 23.6875C176.328 22.7344 175.109 22.2031 173.062 22.2031ZM171.094 14.7969C171.094 16.5781 172.359 18.2969 174.469 19.0156L173.703 20.1875C172.133 19.6406 170.977 18.5234 170.375 17.1406C169.758 18.7109 168.531 19.9688 166.859 20.5781L166.078 19.3906C168.25 18.6406 169.578 16.75 169.578 14.8125V14.5H166.547V13.2969H174.094V14.5H171.094V14.7969ZM186.578 13V16.6094H181.953V18.0938C183.914 18.0859 185.438 18.0391 187.297 17.7812L187.406 18.9375C185.375 19.2188 183.734 19.2656 181.5 19.2656H180.484V15.5H185.094V14.1406H180.469V13H186.578ZM191.578 20.3125V23.7344H183.828V25.0625H192.078V26.2344H182.344V22.6562H190.109V21.4375H182.328V20.3125H191.578ZM191.578 12.3281V19.6719H190.094V17.7188H187.469V16.5H190.094V15.1719H187.469V13.9688H190.094V12.3281H191.578Z" fill="#7565F0"/>
<rect x="234" width="93" height="38" rx="7" fill="#7F71EC"/>
<path d="M272.156 12.3281V26.3281H270.656V12.3281H272.156ZM268.828 13.7656V14.9844H267.375V21.4844C268.102 21.4375 268.82 21.375 269.516 21.2969L269.594 22.3906C266.562 22.875 263.234 22.9219 260.656 22.9375L260.484 21.7031L262.328 21.6875V14.9844H260.859V13.7656H268.828ZM263.766 21.6562C264.469 21.6406 265.195 21.6172 265.922 21.5781V14.9844H263.766V21.6562ZM285.688 18.9688V20.1875H275.938V13.5781H285.562V14.7969H277.406V18.9688H285.688ZM287.156 23.25V24.4844H274.344V23.25H287.156ZM290.172 13.2188V15.3594H292.875V13.2188H294.25V19.8281H288.766V13.2188H290.172ZM290.172 18.625H292.875V16.5156H290.172V18.625ZM300.109 12.3438V20.75H298.703V17.125H297.062V20.6562H295.688V12.5938H297.062V15.9062H298.703V12.3438H300.109ZM300.109 21.5312V26.3281H298.641V22.7344H290.594V21.5312H300.109Z" fill="white"/>
<line x1="93.5" y1="18.5" x2="116.5" y2="18.5" stroke="#7565F0" stroke-linecap="round" stroke-dasharray="2 2"/>
<line x1="210.5" y1="18.5" x2="233.5" y2="18.5" stroke="#3C32AF" stroke-linecap="round" stroke-dasharray="2 2"/>
<circle cx="234.5" cy="18.5" r="2.5" fill="#3C32AF"/>
</svg>
