<svg width="228" height="99" viewBox="0 0 228 99" fill="none" xmlns="http://www.w3.org/2000/svg">
<rect x="0.5" y="0.5" width="59" height="37" rx="6.5" fill="white"/>
<rect x="0.5" y="0.5" width="59" height="37" rx="6.5" stroke="#7565F0"/>
<path d="M20.125 25H18.2969L22.3594 13.6875H24.3438L28.4219 25H26.5938L25.5625 22.0156H21.1562L20.125 25ZM21.6562 20.5781H25.0625L23.3906 15.75H23.3125L21.6562 20.5781ZM40.2188 12.3125V16.5H42.25V17.75H40.2188V22.6094H38.7344V12.3125H40.2188ZM40.8125 24.8281V26.0312H31.3438V21.5312H32.8281V24.8281H40.8125ZM33.1562 13.2812C35.2656 13.2812 36.875 14.7188 36.8906 16.7656C36.875 18.7969 35.2656 20.25 33.1562 20.25C31.0469 20.25 29.4219 18.7969 29.4375 16.7656C29.4219 14.7188 31.0469 13.2812 33.1562 13.2812ZM33.1562 14.5781C31.875 14.5781 30.875 15.4688 30.8906 16.7656C30.875 18.0625 31.875 18.9531 33.1562 18.9531C34.4531 18.9531 35.4375 18.0625 35.4375 16.7656C35.4375 15.4688 34.4531 14.5781 33.1562 14.5781Z" fill="#7565F0"/>
<rect x="84.5" y="0.5" width="59" height="37" rx="6.5" fill="white"/>
<rect x="84.5" y="0.5" width="59" height="37" rx="6.5" stroke="#7565F0"/>
<path d="M103.156 25V13.6875H107.297C109.703 13.6875 110.875 14.9844 110.875 16.6562C110.875 18.0625 110.016 18.7812 108.969 19.0469V19.1562C110.094 19.2188 111.312 20.2031 111.312 21.9531C111.312 23.6875 110.125 25 107.484 25H103.156ZM107.328 23.5312C108.953 23.5312 109.609 22.8125 109.609 21.875C109.609 20.7969 108.75 19.9219 107.391 19.9219H104.875V23.5312H107.328ZM107.156 18.5781C108.297 18.5781 109.188 17.875 109.188 16.7969C109.188 15.8594 108.547 15.1562 107.188 15.1562H104.875V18.5781H107.156ZM123.516 12.3125V16.5H125.547V17.75H123.516V22.6094H122.031V12.3125H123.516ZM124.109 24.8281V26.0312H114.641V21.5312H116.125V24.8281H124.109ZM116.453 13.2812C118.562 13.2812 120.172 14.7188 120.188 16.7656C120.172 18.7969 118.562 20.25 116.453 20.25C114.344 20.25 112.719 18.7969 112.734 16.7656C112.719 14.7188 114.344 13.2812 116.453 13.2812ZM116.453 14.5781C115.172 14.5781 114.172 15.4688 114.188 16.7656C114.172 18.0625 115.172 18.9531 116.453 18.9531C117.75 18.9531 118.734 18.0625 118.734 16.7656C118.734 15.4688 117.75 14.5781 116.453 14.5781Z" fill="#7565F0"/>
<rect x="168.5" y="0.5" width="59" height="37" rx="6.5" fill="white"/>
<rect x="168.5" y="0.5" width="59" height="37" rx="6.5" stroke="#7565F0"/>
<path d="M193.812 17.375C193.531 15.9219 192.328 15.1094 190.891 15.1094C188.938 15.1094 187.484 16.6094 187.484 19.3438C187.484 22.0938 188.953 23.5781 190.891 23.5781C192.312 23.5781 193.516 22.7812 193.812 21.3438L195.547 21.3594C195.188 23.5938 193.359 25.1562 190.875 25.1562C187.922 25.1562 185.781 22.9531 185.781 19.3438C185.781 15.7188 187.938 13.5312 190.875 13.5312C193.266 13.5312 195.156 14.9375 195.547 17.375H193.812ZM207.766 12.3125V16.5H209.797V17.75H207.766V22.6094H206.281V12.3125H207.766ZM208.359 24.8281V26.0312H198.891V21.5312H200.375V24.8281H208.359ZM200.703 13.2812C202.812 13.2812 204.422 14.7188 204.438 16.7656C204.422 18.7969 202.812 20.25 200.703 20.25C198.594 20.25 196.969 18.7969 196.984 16.7656C196.969 14.7188 198.594 13.2812 200.703 13.2812ZM200.703 14.5781C199.422 14.5781 198.422 15.4688 198.438 16.7656C198.422 18.0625 199.422 18.9531 200.703 18.9531C202 18.9531 202.984 18.0625 202.984 16.7656C202.984 15.4688 202 14.5781 200.703 14.5781Z" fill="#7565F0"/>
<line x1="144.5" y1="18.5" x2="167.5" y2="18.5" stroke="#7565F0" stroke-linecap="round" stroke-dasharray="2 2"/>
<line x1="60.5" y1="18.5" x2="83.5" y2="18.5" stroke="#7565F0" stroke-linecap="round" stroke-dasharray="2 2"/>
<rect x="84" y="61" width="60" height="38" rx="7" fill="#7F71EC"/>
<path d="M105.453 75.8906C105.453 77.7812 106.719 79.625 108.828 80.3594L108.016 81.5156C106.484 80.9297 105.344 79.7734 104.75 78.3125C104.141 79.9375 102.945 81.2188 101.297 81.8438L100.5 80.6719C102.672 79.8906 103.969 77.9531 103.984 75.8438V74.1875H105.453V75.8906ZM112.188 73.3438V83.7812H110.703V77.75H107.75V76.5312H110.703V73.3438H112.188ZM112.5 85.8281V87.0312H103.047V82.6094H104.547V85.8281H112.5ZM120.391 74.3281V75.5312H116.344V77.0938H120.234V78.2344H116.344V79.9375C118.219 79.9219 119.453 79.8516 120.891 79.5781L121.031 80.7969C119.391 81.1094 118.062 81.1719 115.828 81.1562H114.922V74.3281H120.391ZM126.281 73.3438V81.8438H124.875V78.1094H123.156V81.7344H121.766V73.5938H123.156V76.9062H124.875V73.3438H126.281ZM126.281 82.5156V87.3281H124.812V83.7188H116.766V82.5156H126.281Z" fill="white"/>
<line x1="113.5" y1="37.5" x2="113.5" y2="60.5" stroke="#3C32AF" stroke-linecap="round" stroke-dasharray="2 2"/>
<circle cx="113.5" cy="61.5" r="2.5" transform="rotate(90 113.5 61.5)" fill="#3C32AF"/>
</svg>
