<svg width="444" height="38" viewBox="0 0 444 38" fill="none" xmlns="http://www.w3.org/2000/svg">
<rect x="0.5" y="0.5" width="92" height="37" rx="6.5" fill="white"/>
<rect x="0.5" y="0.5" width="92" height="37" rx="6.5" stroke="#7565F0"/>
<path d="M32.3281 23.3438V24.5781H19.5156V23.3438H22.5781V19.6875C21.4297 19.0547 20.7344 18.0469 20.7344 16.7969C20.7344 14.5938 22.8906 13.1406 25.8906 13.1406C28.9062 13.1406 31.0625 14.5938 31.0625 16.7969C31.0625 18.0312 30.3906 19.0234 29.2656 19.6562V23.3438H32.3281ZM25.8906 14.3281C23.6875 14.3281 22.1719 15.2812 22.1719 16.7969C22.1719 18.2969 23.6875 19.2812 25.8906 19.2812C28.0781 19.2812 29.625 18.2969 29.625 16.7969C29.625 15.2812 28.0781 14.3281 25.8906 14.3281ZM24.0469 23.3438H27.7656V20.2188C27.1953 20.3672 26.5625 20.4375 25.8906 20.4375C25.2344 20.4375 24.6094 20.3672 24.0469 20.2344V23.3438ZM44.4844 13.2031V14.4375C44.4844 15.7656 44.4844 17.2031 44.0938 19.2031H46.1094V20.4219H40.4375V26.3438H38.9375V20.4219H33.3438V19.2031H42.5938C43.0156 17.2109 43.0156 15.7422 43.0156 14.4375V14.4219H34.9062V13.2031H44.4844ZM52.0312 15.8906C52.0156 18.375 53.4531 20.9062 55.5469 21.9219L54.625 23.1094C53.1016 22.3203 51.9219 20.75 51.3125 18.875C50.6797 20.875 49.4531 22.5469 47.8594 23.375L46.9375 22.1719C49.0938 21.1406 50.5469 18.4531 50.5469 15.8906V13.5H52.0312V15.8906ZM58.0781 12.3281V17.9062H60.3281V19.1719H58.0781V26.3281H56.5938V12.3281H58.0781ZM72 12.3281V16.125H74.0312V17.375H72V21.3125H70.5156V12.3281H72ZM67.5312 21.4219C70.3906 21.4219 72.1562 22.3281 72.1562 23.875C72.1562 25.3906 70.3906 26.3125 67.5312 26.2969C64.6406 26.3125 62.875 25.3906 62.8906 23.875C62.875 22.3281 64.6406 21.4219 67.5312 21.4219ZM67.5312 22.5625C65.5156 22.5625 64.3438 23.0156 64.3594 23.875C64.3438 24.6875 65.5156 25.1719 67.5312 25.1719C69.5156 25.1719 70.6875 24.6875 70.6875 23.875C70.6875 23.0156 69.5156 22.5625 67.5312 22.5625ZM69.3594 13.8281V15H61.0156V13.8281H64.4531V12.2188H65.9375V13.8281H69.3594ZM65.1875 15.6406C67.2031 15.6406 68.5781 16.6406 68.5781 18.1406C68.5781 19.6406 67.2031 20.625 65.1875 20.6094C63.1406 20.625 61.7812 19.6406 61.7812 18.1406C61.7812 16.6406 63.1406 15.6406 65.1875 15.6406ZM65.1875 16.75C64 16.75 63.2031 17.2812 63.2188 18.1406C63.2031 18.9688 64 19.4844 65.1875 19.4844C66.375 19.4844 67.1719 18.9688 67.1875 18.1406C67.1719 17.2812 66.375 16.75 65.1875 16.75Z" fill="#7565F0"/>
<rect x="117.5" y="0.5" width="92" height="37" rx="6.5" fill="white"/>
<rect x="117.5" y="0.5" width="92" height="37" rx="6.5" stroke="#7565F0"/>
<path d="M163.328 23.3906V24.6094H150.516V23.3906H156.172V20.3438H157.641V23.3906H163.328ZM162.141 14.4531V15.6562H157.656C157.719 17.6172 159.797 19.2422 162.672 19.6719L162.109 20.8281C159.773 20.4609 157.82 19.3516 156.906 17.7188C155.992 19.3516 154.047 20.4609 151.703 20.8281L151.141 19.6719C154.016 19.2422 156.078 17.6172 156.156 15.6562H151.672V14.4531H156.172V12.5781H157.641V14.4531H162.141ZM175.344 12.3125V16.5H177.375V17.75H175.344V22.6094H173.859V12.3125H175.344ZM175.938 24.8281V26.0312H166.469V21.5312H167.953V24.8281H175.938ZM168.281 13.2812C170.391 13.2812 172 14.7188 172.016 16.7656C172 18.7969 170.391 20.25 168.281 20.25C166.172 20.25 164.547 18.7969 164.562 16.7656C164.547 14.7188 166.172 13.2812 168.281 13.2812ZM168.281 14.5781C167 14.5781 166 15.4688 166.016 16.7656C166 18.0625 167 18.9531 168.281 18.9531C169.578 18.9531 170.562 18.0625 170.562 16.7656C170.562 15.4688 169.578 14.5781 168.281 14.5781Z" fill="#7565F0"/>
<rect x="234.5" y="0.5" width="92" height="37" rx="6.5" fill="white"/>
<rect x="234.5" y="0.5" width="92" height="37" rx="6.5" stroke="#7565F0"/>
<path d="M272.156 12.3281V26.3281H270.656V12.3281H272.156ZM268.828 13.7656V14.9844H267.375V21.4844C268.102 21.4375 268.82 21.375 269.516 21.2969L269.594 22.3906C266.562 22.875 263.234 22.9219 260.656 22.9375L260.484 21.7031L262.328 21.6875V14.9844H260.859V13.7656H268.828ZM263.766 21.6562C264.469 21.6406 265.195 21.6172 265.922 21.5781V14.9844H263.766V21.6562ZM285.688 18.9688V20.1875H275.938V13.5781H285.562V14.7969H277.406V18.9688H285.688ZM287.156 23.25V24.4844H274.344V23.25H287.156ZM290.172 13.2188V15.3594H292.875V13.2188H294.25V19.8281H288.766V13.2188H290.172ZM290.172 18.625H292.875V16.5156H290.172V18.625ZM300.109 12.3438V20.75H298.703V17.125H297.062V20.6562H295.688V12.5938H297.062V15.9062H298.703V12.3438H300.109ZM300.109 21.5312V26.3281H298.641V22.7344H290.594V21.5312H300.109Z" fill="#7565F0"/>
<rect x="351" width="93" height="38" rx="7" fill="#7F71EC"/>
<path d="M396.188 12.3281V19.4531H394.703V18.1094H391.156V16.9531H394.703V15.4375H391.328C390.461 17.6094 388.352 19.0391 385.25 19.7656L384.734 18.5469C388.094 17.8047 389.914 16.25 390.156 14.1875H385.469V12.9688H391.781C391.781 13.4219 391.742 13.8516 391.672 14.2656H394.703V12.3281H396.188ZM396.188 20.0469V23.5938H388.531V25H396.609V26.1875H387.062V22.4688H394.703V21.2188H387.031V20.0469H396.188ZM406.141 13.8281V14.6875C406.141 15.8594 406.141 17.6719 405.734 20.1719L404.266 20.0625C404.617 17.8203 404.656 16.2031 404.672 15.0312H398.984V13.8281H406.141ZM402.547 17.8281V22.0156C404.039 21.9688 405.555 21.8672 406.953 21.6875L407.031 22.7969C404.109 23.2656 400.859 23.3281 398.375 23.3125L398.203 22.1094C399.078 22.1016 400.055 22.0938 401.078 22.0625V17.8281H402.547ZM409.25 12.3281V18.1094H411.391V19.375H409.25V26.3281H407.75V12.3281H409.25Z" fill="white"/>
<line x1="210.5" y1="18.5" x2="233.5" y2="18.5" stroke="#7565F0" stroke-linecap="round" stroke-dasharray="2 2"/>
<line x1="327.5" y1="18.5" x2="350.5" y2="18.5" stroke="#3C32AF" stroke-linecap="round" stroke-dasharray="2 2"/>
<line x1="93.5" y1="18.5" x2="116.5" y2="18.5" stroke="#7565F0" stroke-linecap="round" stroke-dasharray="2 2"/>
<circle cx="351.5" cy="18.5" r="2.5" fill="#3C32AF"/>
</svg>
