<svg width="137" height="131" viewBox="0 0 137 131" fill="none" xmlns="http://www.w3.org/2000/svg">
<path d="M14.1495 25.762C18.0569 25.762 21.2244 22.5945 21.2244 18.6871C21.2244 14.7798 18.0569 11.6123 14.1495 11.6123C10.2422 11.6123 7.07471 14.7798 7.07471 18.6871C7.07471 22.5945 10.2422 25.762 14.1495 25.762Z" fill="#2E2A5E"/>
<path d="M28.2993 39.0273C28.2993 43.4225 28.2993 46.9865 14.1497 46.9865C0 46.9865 0 43.4225 0 39.0273C0 34.6321 6.33551 31.0681 14.1497 31.0681C21.9638 31.0681 28.2993 34.6321 28.2993 39.0273Z" fill="#2E2A5E"/>
<path d="M122.041 25.762C125.948 25.762 129.115 22.5945 129.115 18.6871C129.115 14.7798 125.948 11.6123 122.041 11.6123C118.133 11.6123 114.966 14.7798 114.966 18.6871C114.966 22.5945 118.133 25.762 122.041 25.762Z" fill="#2E2A5E"/>
<path d="M136.19 39.0273C136.19 43.4225 136.19 46.9865 122.041 46.9865C107.891 46.9865 107.891 43.4225 107.891 39.0273C107.891 34.6321 114.227 31.0681 122.041 31.0681C129.855 31.0681 136.19 34.6321 136.19 39.0273Z" fill="#2E2A5E"/>
<path d="M69.8639 109.776C73.7712 109.776 76.9387 106.608 76.9387 102.701C76.9387 98.7934 73.7712 95.6259 69.8639 95.6259C65.9566 95.6259 62.7891 98.7934 62.7891 102.701C62.7891 106.608 65.9566 109.776 69.8639 109.776Z" fill="#2E2A5E"/>
<path d="M84.0137 123.041C84.0137 127.436 84.0137 131 69.864 131C55.7144 131 55.7144 127.436 55.7144 123.041C55.7144 118.646 62.0499 115.082 69.864 115.082C77.6782 115.082 84.0137 118.646 84.0137 123.041Z" fill="#2E2A5E"/>
<path d="M110.877 18.3544C105.375 12.8524 98.8432 8.48794 91.6544 5.51026C84.4657 2.53259 76.7608 0.999998 68.9798 1C61.1988 1 53.4939 2.53259 46.3052 5.51027C39.1164 8.48795 32.5845 12.8524 27.0825 18.3544" stroke="#2E2A5E" stroke-width="2" stroke-dasharray="4 4"/>
<path d="M9.14587 54.2766C7.82676 67.2908 10.8513 80.3757 17.7479 91.4908C24.6445 102.606 35.0254 111.126 47.2718 115.724" stroke="#2E2A5E" stroke-width="2" stroke-dasharray="4 4"/>
<path d="M130.099 54.2766C131.418 67.2908 128.393 80.3757 121.497 91.4908C114.6 102.606 104.219 111.126 91.9729 115.724" stroke="#2E2A5E" stroke-width="2" stroke-dasharray="4 4"/>
<path d="M68.9795 35.4897V39.9115" stroke="#5642F1" stroke-width="1.5" stroke-linecap="round"/>
<path d="M51.2925 47.8707L55.7142 47.8707" stroke="#5642F1" stroke-width="1.5" stroke-linecap="round"/>
<path d="M57.4829 39.0272L59.7341 41.2784" stroke="#5642F1" stroke-width="1.5" stroke-linecap="round"/>
<path d="M80.4761 39.0272L78.2249 41.2784" stroke="#5642F1" stroke-width="1.5" stroke-linecap="round"/>
<path d="M81.3604 47.8707L85.7821 47.8707" stroke="#5642F1" stroke-width="1.5" stroke-linecap="round"/>
<path d="M69.4215 42.5646C66.7243 42.5646 64.1375 43.6407 62.2302 45.5563C60.323 47.4718 59.2515 50.0699 59.2515 52.7789C59.2515 56.2517 60.9804 59.3014 63.6101 61.1546V64.4523C63.6101 64.8393 63.7631 65.2105 64.0356 65.4841C64.3081 65.7578 64.6776 65.9115 65.0629 65.9115H73.7801C74.1655 65.9115 74.535 65.7578 74.8075 65.4841C75.0799 65.2105 75.233 64.8393 75.233 64.4523V61.1546C77.8627 59.3014 79.5916 56.2517 79.5916 52.7789C79.5916 50.0699 78.5201 47.4718 76.6129 45.5563C74.7056 43.6407 72.1188 42.5646 69.4215 42.5646ZM65.0629 70.2891C65.0629 70.6761 65.216 71.0472 65.4885 71.3209C65.7609 71.5945 66.1305 71.7482 66.5158 71.7482H72.3273C72.7126 71.7482 73.0821 71.5945 73.3546 71.3209C73.6271 71.0472 73.7801 70.6761 73.7801 70.2891V68.8299H65.0629V70.2891Z" fill="#5642F1"/>
</svg>
