<svg width="207" height="82" viewBox="0 0 207 82" fill="none" xmlns="http://www.w3.org/2000/svg">
<circle cx="13.7734" cy="68.2266" r="13.7734" fill="#2E2A5E"/>
<circle cx="69.5078" cy="13.7734" r="13.7734" fill="#2E2A5E"/>
<circle cx="192.508" cy="13.7734" r="13.7734" fill="#5642F1"/>
<circle cx="131.008" cy="68.2266" r="13.7734" fill="#2E2A5E"/>
<path d="M21.7812 51.8906L55.7344 27.5469" stroke="black" stroke-width="2" stroke-dasharray="4 4"/>
<path d="M117.234 51.8906L83.2812 27.5469" stroke="black" stroke-width="2" stroke-dasharray="4 4"/>
<path d="M175.745 28.0871C175.793 27.6757 175.499 27.3032 175.087 27.2551L168.383 26.471C167.971 26.4229 167.599 26.7174 167.551 27.1288C167.503 27.5402 167.797 27.9127 168.209 27.9609L174.168 28.6578L173.471 34.6172C173.423 35.0286 173.717 35.4011 174.129 35.4492C174.54 35.4973 174.913 35.2028 174.961 34.7914L175.745 28.0871ZM144.781 51.8906L145.246 52.479L175.465 28.5883L175 28L174.535 27.4117L144.316 51.3023L144.781 51.8906Z" fill="black"/>
</svg>
