<svg width="190" height="135" viewBox="0 0 190 135" fill="none" xmlns="http://www.w3.org/2000/svg">
<rect x="26" y="1" width="151" height="92" rx="9" fill="#7565F0" stroke="#2E2A5E" stroke-width="2"/>
<rect x="20" y="6" width="151" height="92" rx="9" fill="#7565F0" stroke="#2E2A5E" stroke-width="2"/>
<rect x="14" y="11" width="151" height="92" rx="9" fill="#7565F0" stroke="#2E2A5E" stroke-width="2"/>
<rect x="189" y="51" width="74" height="45" rx="7" transform="rotate(90 189 51)" fill="white" stroke="#2E2A5E" stroke-width="2"/>
<rect x="160" y="54" width="14" height="2" rx="1" fill="#2E2A5E"/>
<path d="M81.4336 71H76.8633L87.0195 42.7188H91.9805L102.176 71H97.6055L95.0273 63.5391H84.0117L81.4336 71ZM85.2617 59.9453H93.7773L89.5977 47.875H89.4023L85.2617 59.9453Z" fill="#2E2A5E"/>
<path d="M163.156 94V82.6875H167.297C169.703 82.6875 170.875 83.9844 170.875 85.6562C170.875 87.0625 170.016 87.7812 168.969 88.0469V88.1562C170.094 88.2188 171.312 89.2031 171.312 90.9531C171.312 92.6875 170.125 94 167.484 94H163.156ZM167.328 92.5312C168.953 92.5312 169.609 91.8125 169.609 90.875C169.609 89.7969 168.75 88.9219 167.391 88.9219H164.875V92.5312H167.328ZM167.156 87.5781C168.297 87.5781 169.188 86.875 169.188 85.7969C169.188 84.8594 168.547 84.1562 167.188 84.1562H164.875V87.5781H167.156Z" fill="#2E2A5E"/>
<rect x="1" y="82" width="88" height="52" rx="5" fill="#E3E0FC" stroke="#2E2A5E" stroke-width="2"/>
<path d="M48.1875 106.375C47.9062 104.922 46.7031 104.109 45.2656 104.109C43.3125 104.109 41.8594 105.609 41.8594 108.344C41.8594 111.094 43.3281 112.578 45.2656 112.578C46.6875 112.578 47.8906 111.781 48.1875 110.344L49.9219 110.359C49.5625 112.594 47.7344 114.156 45.25 114.156C42.2969 114.156 40.1562 111.953 40.1562 108.344C40.1562 104.719 42.3125 102.531 45.25 102.531C47.6406 102.531 49.5312 103.938 49.9219 106.375H48.1875Z" fill="#2E2A5E"/>
</svg>
